<?xml version="1.0" encoding="UTF-8" standalone="no"?>
<!-- Created with Inkscape (http://www.inkscape.org/) -->

<svg
   width="512"
   height="512"
   viewBox="0 0 512 512"
   version="1.1"
   id="svg1"
   inkscape:version="1.4.3 (0d15f75042, 2025-12-25)"
   sodipodi:docname="drawing.svg"
   xmlns:inkscape="http://www.inkscape.org/namespaces/inkscape"
   xmlns:sodipodi="http://sodipodi.sourceforge.net/DTD/sodipodi-0.dtd"
   xmlns:xlink="http://www.w3.org/1999/xlink"
   xmlns="http://www.w3.org/2000/svg"
   xmlns:svg="http://www.w3.org/2000/svg">
  <sodipodi:namedview
     id="namedview1"
     pagecolor="#505050"
     bordercolor="#ffffff"
     borderopacity="1"
     inkscape:showpageshadow="0"
     inkscape:pageopacity="0"
     inkscape:pagecheckerboard="1"
     inkscape:deskcolor="#505050"
     inkscape:document-units="px"
     showguides="true"
     inkscape:zoom="2.579899"
     inkscape:cx="232.56724"
     inkscape:cy="262.80099"
     inkscape:window-width="1920"
     inkscape:window-height="1013"
     inkscape:window-x="0"
     inkscape:window-y="0"
     inkscape:window-maximized="1"
     inkscape:current-layer="g11">
    <sodipodi:guide
       position="256,256"
       orientation="0,-1"
       id="guide2"
       inkscape:locked="false" />
    <sodipodi:guide
       position="256.00001,255.99999"
       orientation="1,0"
       id="guide3"
       inkscape:locked="false" />
    <sodipodi:guide
       position="127.975,384.025"
       orientation="0,-1"
       id="guide4"
       inkscape:locked="false" />
    <sodipodi:guide
       position="384,128"
       orientation="0,-1"
       id="guide5"
       inkscape:locked="false" />
    <sodipodi:guide
       position="384,128"
       orientation="1,0"
       id="guide6"
       inkscape:locked="false" />
    <sodipodi:guide
       position="129.24946,325.90806"
       orientation="1,0"
       id="guide7"
       inkscape:locked="false" />
    <sodipodi:guide
       position="63.987499,448.0125"
       orientation="0,-1"
       id="guide9"
       inkscape:locked="false" />
  </sodipodi:namedview>
  <defs
     id="defs1">
    <inkscape:path-effect
       effect="powerstroke"
       message=""
       id="path-effect198"
       is_visible="true"
       lpeversion="1.3"
       scale_width="1"
       interpolator_type="CentripetalCatmullRom"
       interpolator_beta="0.2"
       start_linecap_type="zerowidth"
       end_linecap_type="zerowidth"
       offset_points="0.19908783,1.1770993 | 0.49688499,1.5526941 | 0.80142028,1.0772176"
       linejoin_type="round"
       miter_limit="4"
       not_jump="false"
       sort_points="true" />
    <inkscape:path-effect
       effect="powerstroke"
       message=""
       id="path-effect178"
       is_visible="true"
       lpeversion="1.3"
       scale_width="1"
       interpolator_type="CentripetalCatmullRom"
       interpolator_beta="0.2"
       start_linecap_type="zerowidth"
       end_linecap_type="zerowidth"
       offset_points="0.19908783,1.1770993 | 0.49688499,1.5526941 | 0.80142028,1.0772176"
       linejoin_type="round"
       miter_limit="4"
       not_jump="false"
       sort_points="true" />
    <inkscape:path-effect
       effect="powerstroke"
       message=""
       id="path-effect176"
       is_visible="true"
       lpeversion="1.3"
       scale_width="1"
       interpolator_type="CentripetalCatmullRom"
       interpolator_beta="0.2"
       start_linecap_type="zerowidth"
       end_linecap_type="zerowidth"
       offset_points="0.19908783,1.1770993 | 0.49688499,1.5526941 | 0.80142028,1.0772176"
       linejoin_type="round"
       miter_limit="4"
       not_jump="false"
       sort_points="true" />
    <inkscape:path-effect
       effect="powerstroke"
       message=""
       id="path-effect174"
       is_visible="true"
       lpeversion="1.3"
       scale_width="1"
       interpolator_type="CentripetalCatmullRom"
       interpolator_beta="0.2"
       start_linecap_type="zerowidth"
       end_linecap_type="zerowidth"
       offset_points="0.19908783,1.1770993 | 0.49688499,1.5526941 | 0.80142028,1.0772176"
       linejoin_type="round"
       miter_limit="4"
       not_jump="false"
       sort_points="true" />
    <inkscape:path-effect
       effect="powerstroke"
       message=""
       id="path-effect172"
       is_visible="true"
       lpeversion="1.3"
       scale_width="1"
       interpolator_type="CentripetalCatmullRom"
       interpolator_beta="0.2"
       start_linecap_type="zerowidth"
       end_linecap_type="zerowidth"
       offset_points="0.19908783,1.1770993 | 0.49688499,1.5526941 | 0.80142028,1.0772176"
       linejoin_type="round"
       miter_limit="4"
       not_jump="false"
       sort_points="true" />
    <inkscape:path-effect
       effect="powerstroke"
       message=""
       id="path-effect170"
       is_visible="true"
       lpeversion="1.3"
       scale_width="1"
       interpolator_type="CentripetalCatmullRom"
       interpolator_beta="0.2"
       start_linecap_type="zerowidth"
       end_linecap_type="zerowidth"
       offset_points="0.19908783,1.1770993 | 0.49688499,1.5526941 | 0.80142028,1.0772176"
       linejoin_type="round"
       miter_limit="4"
       not_jump="false"
       sort_points="true" />
    <inkscape:path-effect
       effect="powerstroke"
       message=""
       id="path-effect168"
       is_visible="true"
       lpeversion="1.3"
       scale_width="1"
       interpolator_type="CentripetalCatmullRom"
       interpolator_beta="0.2"
       start_linecap_type="zerowidth"
       end_linecap_type="zerowidth"
       offset_points="0.19908783,1.1770993 | 0.49688499,1.5526941 | 0.80142028,1.0772176"
       linejoin_type="round"
       miter_limit="4"
       not_jump="false"
       sort_points="true" />
    <inkscape:path-effect
       effect="powerstroke"
       message=""
       id="path-effect166"
       is_visible="true"
       lpeversion="1.3"
       scale_width="1"
       interpolator_type="CentripetalCatmullRom"
       interpolator_beta="0.2"
       start_linecap_type="zerowidth"
       end_linecap_type="zerowidth"
       offset_points="0.19908783,1.1770993 | 0.49688499,1.5526941 | 0.80142028,1.0772176"
       linejoin_type="round"
       miter_limit="4"
       not_jump="false"
       sort_points="true" />
    <inkscape:path-effect
       effect="powerstroke"
       message=""
       id="path-effect164"
       is_visible="true"
       lpeversion="1.3"
       scale_width="1"
       interpolator_type="CentripetalCatmullRom"
       interpolator_beta="0.2"
       start_linecap_type="zerowidth"
       end_linecap_type="zerowidth"
       offset_points="0.19908783,1.1770993 | 0.49688499,1.5526941 | 0.80142028,1.0772176"
       linejoin_type="round"
       miter_limit="4"
       not_jump="false"
       sort_points="true" />
    <inkscape:path-effect
       effect="powerstroke"
       message=""
       id="path-effect162"
       is_visible="true"
       lpeversion="1.3"
       scale_width="1"
       interpolator_type="CentripetalCatmullRom"
       interpolator_beta="0.2"
       start_linecap_type="zerowidth"
       end_linecap_type="zerowidth"
       offset_points="0.19908783,1.1770993 | 0.49688499,1.5526941 | 0.80142028,1.0772176"
       linejoin_type="round"
       miter_limit="4"
       not_jump="false"
       sort_points="true" />
    <inkscape:path-effect
       effect="powerstroke"
       message=""
       id="path-effect160"
       is_visible="true"
       lpeversion="1.3"
       scale_width="1"
       interpolator_type="CentripetalCatmullRom"
       interpolator_beta="0.2"
       start_linecap_type="zerowidth"
       end_linecap_type="zerowidth"
       offset_points="0.19908783,1.1770993 | 0.49688499,1.5526941 | 0.80142028,1.0772176"
       linejoin_type="round"
       miter_limit="4"
       not_jump="false"
       sort_points="true" />
    <inkscape:path-effect
       effect="powerstroke"
       message=""
       id="path-effect158"
       is_visible="true"
       lpeversion="1.3"
       scale_width="1"
       interpolator_type="CentripetalCatmullRom"
       interpolator_beta="0.2"
       start_linecap_type="zerowidth"
       end_linecap_type="zerowidth"
       offset_points="0.19908783,1.1770993 | 0.49688499,1.5526941 | 0.80142028,1.0772176"
       linejoin_type="round"
       miter_limit="4"
       not_jump="false"
       sort_points="true" />
    <inkscape:path-effect
       effect="powerstroke"
       message=""
       id="path-effect22"
       is_visible="true"
       lpeversion="1.3"
       scale_width="1"
       interpolator_type="CentripetalCatmullRom"
       interpolator_beta="0.2"
       start_linecap_type="zerowidth"
       end_linecap_type="zerowidth"
       offset_points="0.19908783,1.1770993 | 0.49688499,1.5526941 | 0.80142028,1.0772176"
       linejoin_type="round"
       miter_limit="4"
       not_jump="false"
       sort_points="true" />
    <inkscape:path-effect
       effect="powerstroke"
       message=""
       id="path-effect20"
       is_visible="true"
       lpeversion="1.3"
       scale_width="1"
       interpolator_type="CentripetalCatmullRom"
       interpolator_beta="0.2"
       start_linecap_type="zerowidth"
       end_linecap_type="zerowidth"
       offset_points="0.19908783,1.1770993 | 0.49688499,1.5526941 | 0.80142028,1.0772176"
       linejoin_type="round"
       miter_limit="4"
       not_jump="false"
       sort_points="true" />
    <inkscape:path-effect
       effect="powerstroke"
       message=""
       id="path-effect18"
       is_visible="true"
       lpeversion="1.3"
       scale_width="1"
       interpolator_type="CentripetalCatmullRom"
       interpolator_beta="0.2"
       start_linecap_type="zerowidth"
       end_linecap_type="zerowidth"
       offset_points="0.19908783,1.1770993 | 0.49688499,1.5526941 | 0.80142028,1.0772176"
       linejoin_type="round"
       miter_limit="4"
       not_jump="false"
       sort_points="true" />
    <inkscape:path-effect
       effect="powerstroke"
       message=""
       id="path-effect16"
       is_visible="true"
       lpeversion="1.3"
       scale_width="1"
       interpolator_type="CentripetalCatmullRom"
       interpolator_beta="0.2"
       start_linecap_type="zerowidth"
       end_linecap_type="zerowidth"
       offset_points="0.19908783,1.1770993 | 0.49688499,1.5526941 | 0.80142028,1.0772176"
       linejoin_type="round"
       miter_limit="4"
       not_jump="false"
       sort_points="true" />
    <inkscape:path-effect
       effect="powerstroke"
       message=""
       id="path-effect14"
       is_visible="true"
       lpeversion="1.3"
       scale_width="1"
       interpolator_type="CentripetalCatmullRom"
       interpolator_beta="0.2"
       start_linecap_type="zerowidth"
       end_linecap_type="zerowidth"
       offset_points="0.19908783,1.1770993 | 0.49688499,1.5526941 | 0.80142028,1.0772176"
       linejoin_type="round"
       miter_limit="4"
       not_jump="false"
       sort_points="true" />
    <inkscape:path-effect
       effect="powerstroke"
       message=""
       id="path-effect12"
       is_visible="true"
       lpeversion="1.3"
       scale_width="1"
       interpolator_type="CentripetalCatmullRom"
       interpolator_beta="0.2"
       start_linecap_type="zerowidth"
       end_linecap_type="zerowidth"
       offset_points="0.19908783,1.1770993 | 0.49688499,1.5526941 | 0.80142028,1.0772176"
       linejoin_type="round"
       miter_limit="4"
       not_jump="false"
       sort_points="true" />
    <inkscape:path-effect
       effect="powerstroke"
       message=""
       id="path-effect10"
       is_visible="true"
       lpeversion="1.3"
       scale_width="1"
       interpolator_type="CentripetalCatmullRom"
       interpolator_beta="0.2"
       start_linecap_type="zerowidth"
       end_linecap_type="zerowidth"
       offset_points="0.19908783,1.1770993 | 0.49688499,1.5526941 | 0.80142028,1.0772176"
       linejoin_type="round"
       miter_limit="4"
       not_jump="false"
       sort_points="true" />
    <inkscape:path-effect
       effect="powerstroke"
       message=""
       id="path-effect8"
       is_visible="true"
       lpeversion="1.3"
       scale_width="1"
       interpolator_type="CentripetalCatmullRom"
       interpolator_beta="0.2"
       start_linecap_type="zerowidth"
       end_linecap_type="zerowidth"
       offset_points="0.19908783,1.1770993 | 0.49688499,1.5526941 | 0.80142028,1.0772176"
       linejoin_type="round"
       miter_limit="4"
       not_jump="false"
       sort_points="true" />
    <inkscape:path-effect
       effect="powerstroke"
       message=""
       id="path-effect6"
       is_visible="true"
       lpeversion="1.3"
       scale_width="1"
       interpolator_type="CentripetalCatmullRom"
       interpolator_beta="0.2"
       start_linecap_type="zerowidth"
       end_linecap_type="zerowidth"
       offset_points="0.19908783,1.1770993 | 0.49688499,1.5526941 | 0.80142028,1.0772176"
       linejoin_type="round"
       miter_limit="4"
       not_jump="false"
       sort_points="true" />
    <inkscape:path-effect
       effect="powerstroke"
       message=""
       id="path-effect4"
       is_visible="true"
       lpeversion="1.3"
       scale_width="1"
       interpolator_type="CentripetalCatmullRom"
       interpolator_beta="0.2"
       start_linecap_type="zerowidth"
       end_linecap_type="zerowidth"
       offset_points="0.19908783,1.1770993 | 0.49688499,1.5526941 | 0.80142028,1.0772176"
       linejoin_type="round"
       miter_limit="4"
       not_jump="false"
       sort_points="true" />
    <inkscape:path-effect
       effect="powerstroke"
       message=""
       id="path-effect2"
       is_visible="true"
       lpeversion="1.3"
       scale_width="1"
       interpolator_type="CentripetalCatmullRom"
       interpolator_beta="0.2"
       start_linecap_type="zerowidth"
       end_linecap_type="zerowidth"
       offset_points="0.19908783,1.1770993 | 0.49688499,1.5526941 | 0.80142028,1.0772176"
       linejoin_type="round"
       miter_limit="4"
       not_jump="false"
       sort_points="true" />
    <linearGradient
       id="linearGradient11"
       inkscape:collect="always">
      <!-- Highlight: branco-dourado suave no centro da luz -->
      <stop
         style="stop-color:#FBE87B;stop-opacity:1;"
         offset="0"
         id="stop11" />
      <!-- Dourado puro, brilhante -->
      <stop
         style="stop-color:#F0DB76;stop-opacity:1;"
         offset="0.12"
         id="stop13" />
      <!-- Dourado médio, transição quente -->
      <stop
         style="stop-color:#E0CA6E;stop-opacity:1;"
         offset="0.28"
         id="stop14" />
      <!-- Âmbar dourado -->
      <stop
         style="stop-color:#C0AA4C;stop-opacity:1;"
         offset="0.48"
         id="stop15" />
      <!-- Bronze quente -->
      <stop
         style="stop-color:#9D8148;stop-opacity:1;"
         offset="0.68"
         id="stop16" />
      <!-- Bronze médio-escuro -->
      <stop
         style="stop-color:#856E32;stop-opacity:1;"
         offset="0.84"
         id="stop17" />
      <!-- Sombra profunda -->
      <stop
         style="stop-color:#7E5D35;stop-opacity:1;"
         offset="1"
         id="stop12" />
    </linearGradient>
    <linearGradient
       id="swatch133"
       inkscape:label="dark"
       inkscape:pinned="true">
      <stop
         style="stop-color:#7E5D35;stop-opacity:1;"
         offset="0"
         id="stop133" />
      <stop
         style="stop-color:#FBE87B;stop-opacity:1"
         offset="1"
         id="stop137" />
    </linearGradient>
    <linearGradient
       id="swatch132"
       inkscape:label="base"
       inkscape:pinned="true">
      <stop
         style="stop-color:#C0AA4C;stop-opacity:1;"
         offset="0"
         id="stop132" />
    </linearGradient>
    <linearGradient
       id="swatch131"
       inkscape:label="light"
       inkscape:pinned="true">
      <stop
         style="stop-color:#FBE87B;stop-opacity:1;"
         offset="0"
         id="stop131" />
    </linearGradient>
    <radialGradient
       inkscape:collect="always"
       xlink:href="#linearGradient11"
       id="radialGradient12"
       cx="254.49701"
       cy="234.15254"
       fx="254.49701"
       fy="234.15254"
       r="182.86516"
       gradientTransform="matrix(1.3999951,1.399882,-1.3999385,1.3999387,227.50461,-428.06498)"
       gradientUnits="userSpaceOnUse" />
    <inkscape:path-effect
       effect="powerstroke"
       message=""
       id="path-effect2-7"
       is_visible="true"
       lpeversion="1.3"
       scale_width="1"
       interpolator_type="CentripetalCatmullRom"
       interpolator_beta="0.2"
       start_linecap_type="zerowidth"
       end_linecap_type="zerowidth"
       offset_points="0.19908783,1.1770993 | 0.49688499,1.5526941 | 0.80142028,1.0772176"
       linejoin_type="round"
       miter_limit="4"
       not_jump="false"
       sort_points="true" />
  </defs>
  <g
     inkscape:label="Layer 1"
     inkscape:groupmode="layer"
     id="layer1"
     style="display:inline">
    <g
       inkscape:groupmode="layer"
       id="layer5"
       inkscape:label="shard_b">
      <path
         id="path47"
         style="display:inline;fill:#00bdcc;fill-opacity:1;fill-rule:evenodd;stroke:none;stroke-width:0.5;stroke-linecap:butt;stroke-linejoin:round;stroke-dasharray:none;stroke-opacity:1;paint-order:fill markers stroke"
         inkscape:label="star2"
         inkscape:transform-center-y="-18.335562"
         d="M 256,256 199.56836,178.33008 73.384766,196.66406 Z" />
      <path
         id="path73"
         style="display:inline;fill:#00bdcc;fill-opacity:1;fill-rule:evenodd;stroke:none;stroke-width:0.5;stroke-linecap:butt;stroke-linejoin:round;stroke-dasharray:none;stroke-opacity:1;paint-order:fill markers stroke"
         inkscape:label="star2"
         inkscape:transform-center-y="-18.335562"
         d="M 256,256 164.69336,285.66797 143.13867,411.3418 Z" />
      <path
         id="path71"
         style="display:inline;fill:#00bdcc;fill-opacity:1;fill-rule:evenodd;stroke:none;stroke-width:0.5;stroke-linecap:butt;stroke-linejoin:round;stroke-dasharray:none;stroke-opacity:1;paint-order:fill markers stroke"
         inkscape:label="star2"
         inkscape:transform-center-y="-18.335562"
         d="m 256,256 v 96.00586 l 112.86133,59.33594 z" />
      <path
         id="path69"
         style="display:inline;fill:#00bdcc;fill-opacity:1;fill-rule:evenodd;stroke:none;stroke-width:0.5;stroke-linecap:butt;stroke-linejoin:round;stroke-dasharray:none;stroke-opacity:1;paint-order:fill markers stroke"
         inkscape:label="star2"
         inkscape:transform-center-y="-18.335562"
         d="m 256,256 91.30664,29.66797 91.30859,-89.00391 z" />
      <path
         id="path66"
         style="display:inline;fill:#00bdcc;fill-opacity:1;fill-rule:evenodd;stroke:none;stroke-width:0.5;stroke-linecap:butt;stroke-linejoin:round;stroke-dasharray:none;stroke-opacity:1;paint-order:fill markers stroke"
         inkscape:label="star2"
         inkscape:transform-center-y="-18.335562"
         d="M 256,63.988281 V 256 l 56.43164,-77.66992 z" />
    </g>
    <g
       inkscape:groupmode="layer"
       id="layer4"
       inkscape:label="shard_w"
       style="display:inline">
      <path
         id="path74"
         style="display:inline;fill:#00bdcc;fill-opacity:1;fill-rule:evenodd;stroke:none;stroke-width:0.5;stroke-linecap:butt;stroke-linejoin:round;stroke-dasharray:none;stroke-opacity:1;paint-order:fill markers stroke"
         inkscape:label="star1"
         inkscape:transform-center-y="-18.335562"
         d="M 256,256 73.384766,196.66406 164.69336,285.66797 Z" />
      <path
         id="path72"
         style="display:inline;fill:#00bdcc;fill-opacity:1;fill-rule:evenodd;stroke:none;stroke-width:0.5;stroke-linecap:butt;stroke-linejoin:round;stroke-dasharray:none;stroke-opacity:1;paint-order:fill markers stroke"
         inkscape:label="star1"
         inkscape:transform-center-y="-18.335562"
         d="M 256,256 143.13867,411.3418 256,352.00586 Z" />
      <path
         id="path70"
         style="display:inline;fill:#00bdcc;fill-opacity:1;fill-rule:evenodd;stroke:none;stroke-width:0.5;stroke-linecap:butt;stroke-linejoin:round;stroke-dasharray:none;stroke-opacity:1;paint-order:fill markers stroke"
         inkscape:label="star1"
         inkscape:transform-center-y="-18.335562"
         d="M 256,256 368.86133,411.3418 347.30664,285.66797 Z" />
      <path
         id="path68"
         style="display:inline;fill:#00bdcc;fill-opacity:1;fill-rule:evenodd;stroke:none;stroke-width:0.5;stroke-linecap:butt;stroke-linejoin:round;stroke-dasharray:none;stroke-opacity:1;paint-order:fill markers stroke"
         inkscape:label="star1"
         inkscape:transform-center-y="-18.335562"
         d="M 256,256 438.61523,196.66406 312.43164,178.33008 Z" />
      <path
         id="path67"
         style="display:inline;fill:#00bdcc;fill-opacity:1;fill-rule:nonzero;stroke:none;stroke-width:0.5;stroke-linecap:butt;stroke-linejoin:round;stroke-dasharray:none;stroke-opacity:1;paint-order:fill markers stroke"
         inkscape:label="star1"
         inkscape:transform-center-y="-18.335562"
         d="M 256,63.988281 199.56836,178.33008 256,256 Z" />
    </g>
  </g>
  <g
     inkscape:label="Layer 1 copy"
     inkscape:groupmode="layer"
     id="g11">
    <path
       id="path10"
       style="display:none;fill:url(#radialGradient12);fill-opacity:1;fill-rule:nonzero;stroke:#000000;stroke-width:0.5;stroke-linecap:butt;stroke-linejoin:round;stroke-dasharray:none;stroke-opacity:1;paint-order:fill markers stroke"
       inkscape:label="star1"
       inkscape:transform-center-y="-18.335562"
       d="M 256,63.988281 199.56836,178.33008 256,256 Z M 256,256 438.61523,196.66406 312.43164,178.33008 Z m 0,0 112.86133,155.3418 -21.55469,-125.67383 z m 0,0 L 143.13867,411.3418 256,352.00586 Z m 0,0 -182.615234,-59.33594 91.308594,89.00391 z M 256,63.988281 V 256 l 56.43164,-77.66992 z M 256,256 l 91.30664,29.66797 91.30859,-89.00391 z m 0,0 v 96.00586 l 112.86133,59.33594 z m 0,0 -91.30664,29.66797 -21.55469,125.67383 z m 0,0 -56.43164,-77.66992 -126.183594,18.33398 z" />
    <path
       style="display:none;fill:#000000;fill-rule:nonzero;stroke:none;stroke-width:1;stroke-linecap:square;stroke-linejoin:bevel;stroke-dasharray:none"
       d="m 73.384766,196.66406 c 2.921285,0.10575 7.498031,0.26937 12.758562,0.19141 5.267977,-0.0781 10.117589,-0.38409 14.457292,-0.91888 1.88431,-0.23221 3.75758,-0.50983 5.63089,-0.83293 8.63694,-1.48968 15.95125,-3.70684 23.88601,-6.03013 -0.006,0.002 0.30006,-0.0878 0.29368,-0.086 8.11627,-2.37486 16.22425,-4.6609 27.00937,-6.57479 2.31525,-0.41086 4.65073,-0.78602 7.02523,-1.13148 5.55287,-0.80787 11.52136,-1.52254 18.46319,-2.07348 6.79315,-0.53913 12.84854,-0.78173 16.65937,-0.87774 -3.83352,-0.0966 -9.84802,-0.23875 -16.70694,-0.14114 -6.87717,0.0979 -13.13955,0.41739 -18.67439,0.95352 -2.40983,0.23343 -4.79216,0.51107 -7.14917,0.83429 -10.88045,1.49205 -19.4406,3.70477 -27.49312,6.02982 -0.002,4.6e-4 -0.29368,0.0849 -0.29528,0.0854 -8.21821,2.37909 -14.90043,4.50532 -23.52893,6.40316 -1.82526,0.40146 -3.64182,0.77068 -5.48016,1.11502 -4.32777,0.81063 -8.856306,1.54162 -14.166335,2.11967 -5.183875,0.56432 -9.781991,0.82903 -12.689269,0.93427 z"
       id="path1"
       sodipodi:nodetypes="cc"
       inkscape:tile-cx="136.47656"
       inkscape:tile-cy="187.51599"
       inkscape:tile-w="126.18359"
       inkscape:tile-h="18.719695"
       inkscape:tile-x0="73.384766"
       inkscape:tile-y0="178.15614"
       inkscape:transform-center-x="63.091797"
       inkscape:transform-center-y="9.185911" />
    <path
       style="display:none;fill:#000000;fill-rule:nonzero;stroke:none;stroke-width:1;stroke-linecap:square;stroke-linejoin:bevel;stroke-dasharray:none"
       d="m 73.384766,196.66406 c 2.921285,0.10575 7.498031,0.26937 12.758562,0.19141 5.267977,-0.0781 10.117589,-0.38409 14.457292,-0.91888 1.88431,-0.23221 3.75758,-0.50983 5.63089,-0.83293 8.63694,-1.48968 15.95125,-3.70684 23.88601,-6.03013 -0.006,0.002 0.30006,-0.0878 0.29368,-0.086 8.11627,-2.37486 16.22425,-4.6609 27.00937,-6.57479 2.31525,-0.41086 4.65073,-0.78602 7.02523,-1.13148 5.55287,-0.80787 11.52136,-1.52254 18.46319,-2.07348 6.79315,-0.53913 12.84854,-0.78173 16.65937,-0.87774 -3.83352,-0.0966 -9.84802,-0.23875 -16.70694,-0.14114 -6.87717,0.0979 -13.13955,0.41739 -18.67439,0.95352 -2.40983,0.23343 -4.79216,0.51107 -7.14917,0.83429 -10.88045,1.49205 -19.4406,3.70477 -27.49312,6.02982 -0.002,4.6e-4 -0.29368,0.0849 -0.29528,0.0854 -8.21821,2.37909 -14.90043,4.50532 -23.52893,6.40316 -1.82526,0.40146 -3.64182,0.77068 -5.48016,1.11502 -4.32777,0.81063 -8.856306,1.54162 -14.166335,2.11967 -5.183875,0.56432 -9.781991,0.82903 -12.689269,0.93427 z"
       id="use127"
       sodipodi:nodetypes="cc"
       inkscape:tile-x0="73.384766"
       inkscape:tile-y0="178.15614"
       inkscape:transform-center-x="-28.21077"
       inkscape:transform-center-y="-56.999143"
       transform="rotate(124.53,199.56836,178.33008)" />
    <path
       style="display:none;fill:#000000;fill-rule:nonzero;stroke:none;stroke-width:1;stroke-linecap:square;stroke-linejoin:bevel;stroke-dasharray:none"
       d="m 73.384766,196.66406 c 2.921285,0.10575 7.498031,0.26937 12.758562,0.19141 5.267977,-0.0781 10.117589,-0.38409 14.457292,-0.91888 1.88431,-0.23221 3.75758,-0.50983 5.63089,-0.83293 8.63694,-1.48968 15.95125,-3.70684 23.88601,-6.03013 -0.006,0.002 0.30006,-0.0878 0.29368,-0.086 8.11627,-2.37486 16.22425,-4.6609 27.00937,-6.57479 2.31525,-0.41086 4.65073,-0.78602 7.02523,-1.13148 5.55287,-0.80787 11.52136,-1.52254 18.46319,-2.07348 6.79315,-0.53913 12.84854,-0.78173 16.65937,-0.87774 -3.83352,-0.0966 -9.84802,-0.23875 -16.70694,-0.14114 -6.87717,0.0979 -13.13955,0.41739 -18.67439,0.95352 -2.40983,0.23343 -4.79216,0.51107 -7.14917,0.83429 -10.88045,1.49205 -19.4406,3.70477 -27.49312,6.02982 -0.002,4.6e-4 -0.29368,0.0849 -0.29528,0.0854 -8.21821,2.37909 -14.90043,4.50532 -23.52893,6.40316 -1.82526,0.40146 -3.64182,0.77068 -5.48016,1.11502 -4.32777,0.81063 -8.856306,1.54162 -14.166335,2.11967 -5.183875,0.56432 -9.781991,0.82903 -12.689269,0.93427 z"
       id="use128"
       sodipodi:nodetypes="cc"
       inkscape:tile-x0="73.384766"
       inkscape:tile-y0="178.15614"
       inkscape:transform-center-x="63.091797"
       inkscape:transform-center-y="9.185911"
       transform="rotate(-144,255.99954,255.99996)" />
    <path
       style="display:none;fill:#000000;fill-rule:nonzero;stroke:none;stroke-width:1;stroke-linecap:square;stroke-linejoin:bevel;stroke-dasharray:none"
       d="m 73.384766,196.66406 c 2.921285,0.10575 7.498031,0.26937 12.758562,0.19141 5.267977,-0.0781 10.117589,-0.38409 14.457292,-0.91888 1.88431,-0.23221 3.75758,-0.50983 5.63089,-0.83293 8.63694,-1.48968 15.95125,-3.70684 23.88601,-6.03013 -0.006,0.002 0.30006,-0.0878 0.29368,-0.086 8.11627,-2.37486 16.22425,-4.6609 27.00937,-6.57479 2.31525,-0.41086 4.65073,-0.78602 7.02523,-1.13148 5.55287,-0.80787 11.52136,-1.52254 18.46319,-2.07348 6.79315,-0.53913 12.84854,-0.78173 16.65937,-0.87774 -3.83352,-0.0966 -9.84802,-0.23875 -16.70694,-0.14114 -6.87717,0.0979 -13.13955,0.41739 -18.67439,0.95352 -2.40983,0.23343 -4.79216,0.51107 -7.14917,0.83429 -10.88045,1.49205 -19.4406,3.70477 -27.49312,6.02982 -0.002,4.6e-4 -0.29368,0.0849 -0.29528,0.0854 -8.21821,2.37909 -14.90043,4.50532 -23.52893,6.40316 -1.82526,0.40146 -3.64182,0.77068 -5.48016,1.11502 -4.32777,0.81063 -8.856306,1.54162 -14.166335,2.11967 -5.183875,0.56432 -9.781991,0.82903 -12.689269,0.93427 z"
       id="use129"
       sodipodi:nodetypes="cc"
       inkscape:tile-x0="73.384766"
       inkscape:tile-y0="178.15614"
       inkscape:transform-center-x="63.091797"
       inkscape:transform-center-y="9.185911"
       transform="rotate(-108,186.24683,100.65877)" />
    <path
       style="display:none;fill:#000000;fill-rule:nonzero;stroke:none;stroke-width:1;stroke-linecap:square;stroke-linejoin:bevel;stroke-dasharray:none"
       d="m 73.384766,196.66406 c 2.921285,0.10575 7.498031,0.26937 12.758562,0.19141 5.267977,-0.0781 10.117589,-0.38409 14.457292,-0.91888 1.88431,-0.23221 3.75758,-0.50983 5.63089,-0.83293 8.63694,-1.48968 15.95125,-3.70684 23.88601,-6.03013 -0.006,0.002 0.30006,-0.0878 0.29368,-0.086 8.11627,-2.37486 16.22425,-4.6609 27.00937,-6.57479 2.31525,-0.41086 4.65073,-0.78602 7.02523,-1.13148 5.55287,-0.80787 11.52136,-1.52254 18.46319,-2.07348 6.79315,-0.53913 12.84854,-0.78173 16.65937,-0.87774 -3.83352,-0.0966 -9.84802,-0.23875 -16.70694,-0.14114 -6.87717,0.0979 -13.13955,0.41739 -18.67439,0.95352 -2.40983,0.23343 -4.79216,0.51107 -7.14917,0.83429 -10.88045,1.49205 -19.4406,3.70477 -27.49312,6.02982 -0.002,4.6e-4 -0.29368,0.0849 -0.29528,0.0854 -8.21821,2.37909 -14.90043,4.50532 -23.52893,6.40316 -1.82526,0.40146 -3.64182,0.77068 -5.48016,1.11502 -4.32777,0.81063 -8.856306,1.54162 -14.166335,2.11967 -5.183875,0.56432 -9.781991,0.82903 -12.689269,0.93427 z"
       id="use130"
       sodipodi:nodetypes="cc"
       inkscape:tile-x0="73.384766"
       inkscape:tile-y0="178.15614"
       inkscape:transform-center-x="63.091797"
       inkscape:transform-center-y="9.185911"
       transform="rotate(108,86.706767,274.33622)" />
    <path
       style="display:none;fill:#000000;fill-rule:nonzero;stroke:none;stroke-width:1;stroke-linecap:square;stroke-linejoin:bevel;stroke-dasharray:none"
       d="m 73.384766,196.66406 c 2.921285,0.10575 7.498031,0.26937 12.758562,0.19141 5.267977,-0.0781 10.117589,-0.38409 14.457292,-0.91888 1.88431,-0.23221 3.75758,-0.50983 5.63089,-0.83293 8.63694,-1.48968 15.95125,-3.70684 23.88601,-6.03013 -0.006,0.002 0.30006,-0.0878 0.29368,-0.086 8.11627,-2.37486 16.22425,-4.6609 27.00937,-6.57479 2.31525,-0.41086 4.65073,-0.78602 7.02523,-1.13148 5.55287,-0.80787 11.52136,-1.52254 18.46319,-2.07348 6.79315,-0.53913 12.84854,-0.78173 16.65937,-0.87774 -3.83352,-0.0966 -9.84802,-0.23875 -16.70694,-0.14114 -6.87717,0.0979 -13.13955,0.41739 -18.67439,0.95352 -2.40983,0.23343 -4.79216,0.51107 -7.14917,0.83429 -10.88045,1.49205 -19.4406,3.70477 -27.49312,6.02982 -0.002,4.6e-4 -0.29368,0.0849 -0.29528,0.0854 -8.21821,2.37909 -14.90043,4.50532 -23.52893,6.40316 -1.82526,0.40146 -3.64182,0.77068 -5.48016,1.11502 -4.32777,0.81063 -8.856306,1.54162 -14.166335,2.11967 -5.183875,0.56432 -9.781991,0.82903 -12.689269,0.93427 z"
       id="use131"
       sodipodi:nodetypes="cc"
       inkscape:tile-x0="73.384766"
       inkscape:tile-y0="178.15614"
       inkscape:transform-center-x="63.091797"
       inkscape:transform-center-y="9.185911"
       transform="rotate(144,256,255.99935)" />
    <path
       style="display:none;fill:#000000;fill-rule:nonzero;stroke:none;stroke-width:1;stroke-linecap:square;stroke-linejoin:bevel;stroke-dasharray:none"
       d="m 73.384766,196.66406 c 2.921285,0.10575 7.498031,0.26937 12.758562,0.19141 5.267977,-0.0781 10.117589,-0.38409 14.457292,-0.91888 1.88431,-0.23221 3.75758,-0.50983 5.63089,-0.83293 8.63694,-1.48968 15.95125,-3.70684 23.88601,-6.03013 -0.006,0.002 0.30006,-0.0878 0.29368,-0.086 8.11627,-2.37486 16.22425,-4.6609 27.00937,-6.57479 2.31525,-0.41086 4.65073,-0.78602 7.02523,-1.13148 5.55287,-0.80787 11.52136,-1.52254 18.46319,-2.07348 6.79315,-0.53913 12.84854,-0.78173 16.65937,-0.87774 -3.83352,-0.0966 -9.84802,-0.23875 -16.70694,-0.14114 -6.87717,0.0979 -13.13955,0.41739 -18.67439,0.95352 -2.40983,0.23343 -4.79216,0.51107 -7.14917,0.83429 -10.88045,1.49205 -19.4406,3.70477 -27.49312,6.02982 -0.002,4.6e-4 -0.29368,0.0849 -0.29528,0.0854 -8.21821,2.37909 -14.90043,4.50532 -23.52893,6.40316 -1.82526,0.40146 -3.64182,0.77068 -5.48016,1.11502 -4.32777,0.81063 -8.856306,1.54162 -14.166335,2.11967 -5.183875,0.56432 -9.781991,0.82903 -12.689269,0.93427 z"
       id="use154"
       sodipodi:nodetypes="cc"
       inkscape:tile-x0="73.384766"
       inkscape:tile-y0="178.15614"
       inkscape:transform-center-x="63.091797"
       inkscape:transform-center-y="9.185911"
       transform="rotate(16.53,256.02133,1010.3232)" />
    <path
       style="display:none;fill:#000000;fill-rule:nonzero;stroke:none;stroke-width:1;stroke-linecap:square;stroke-linejoin:bevel;stroke-dasharray:none"
       d="m 73.384766,196.66406 c 2.921285,0.10575 7.498031,0.26937 12.758562,0.19141 5.267977,-0.0781 10.117589,-0.38409 14.457292,-0.91888 1.88431,-0.23221 3.75758,-0.50983 5.63089,-0.83293 8.63694,-1.48968 15.95125,-3.70684 23.88601,-6.03013 -0.006,0.002 0.30006,-0.0878 0.29368,-0.086 8.11627,-2.37486 16.22425,-4.6609 27.00937,-6.57479 2.31525,-0.41086 4.65073,-0.78602 7.02523,-1.13148 5.55287,-0.80787 11.52136,-1.52254 18.46319,-2.07348 6.79315,-0.53913 12.84854,-0.78173 16.65937,-0.87774 -3.83352,-0.0966 -9.84802,-0.23875 -16.70694,-0.14114 -6.87717,0.0979 -13.13955,0.41739 -18.67439,0.95352 -2.40983,0.23343 -4.79216,0.51107 -7.14917,0.83429 -10.88045,1.49205 -19.4406,3.70477 -27.49312,6.02982 -0.002,4.6e-4 -0.29368,0.0849 -0.29528,0.0854 -8.21821,2.37909 -14.90043,4.50532 -23.52893,6.40316 -1.82526,0.40146 -3.64182,0.77068 -5.48016,1.11502 -4.32777,0.81063 -8.856306,1.54162 -14.166335,2.11967 -5.183875,0.56432 -9.781991,0.82903 -12.689269,0.93427 z"
       id="use155"
       sodipodi:nodetypes="cc"
       inkscape:tile-x0="73.384766"
       inkscape:tile-y0="178.15614"
       inkscape:transform-center-x="63.091797"
       inkscape:transform-center-y="9.185911"
       transform="rotate(-91.47,325.74581,159.99973)" />
    <path
       style="display:none;fill:#000000;fill-rule:nonzero;stroke:none;stroke-width:1;stroke-linecap:square;stroke-linejoin:bevel;stroke-dasharray:none"
       d="m 73.384766,196.66406 c 2.921285,0.10575 7.498031,0.26937 12.758562,0.19141 5.267977,-0.0781 10.117589,-0.38409 14.457292,-0.91888 1.88431,-0.23221 3.75758,-0.50983 5.63089,-0.83293 8.63694,-1.48968 15.95125,-3.70684 23.88601,-6.03013 -0.006,0.002 0.30006,-0.0878 0.29368,-0.086 8.11627,-2.37486 16.22425,-4.6609 27.00937,-6.57479 2.31525,-0.41086 4.65073,-0.78602 7.02523,-1.13148 5.55287,-0.80787 11.52136,-1.52254 18.46319,-2.07348 6.79315,-0.53913 12.84854,-0.78173 16.65937,-0.87774 -3.83352,-0.0966 -9.84802,-0.23875 -16.70694,-0.14114 -6.87717,0.0979 -13.13955,0.41739 -18.67439,0.95352 -2.40983,0.23343 -4.79216,0.51107 -7.14917,0.83429 -10.88045,1.49205 -19.4406,3.70477 -27.49312,6.02982 -0.002,4.6e-4 -0.29368,0.0849 -0.29528,0.0854 -8.21821,2.37909 -14.90043,4.50532 -23.52893,6.40316 -1.82526,0.40146 -3.64182,0.77068 -5.48016,1.11502 -4.32777,0.81063 -8.856306,1.54162 -14.166335,2.11967 -5.183875,0.56432 -9.781991,0.82903 -12.689269,0.93427 z"
       id="use156"
       sodipodi:nodetypes="cc"
       inkscape:tile-x0="73.384766"
       inkscape:tile-y0="178.15614"
       inkscape:transform-center-x="63.091797"
       inkscape:transform-center-y="9.185911"
       transform="rotate(-19.47,733.94424,100.70321)" />
    <path
       style="display:none;fill:#000000;fill-rule:nonzero;stroke:none;stroke-width:1;stroke-linecap:square;stroke-linejoin:bevel;stroke-dasharray:none"
       d="m 73.384766,196.66406 c 2.921285,0.10575 7.498031,0.26937 12.758562,0.19141 5.267977,-0.0781 10.117589,-0.38409 14.457292,-0.91888 1.88431,-0.23221 3.75758,-0.50983 5.63089,-0.83293 8.63694,-1.48968 15.95125,-3.70684 23.88601,-6.03013 -0.006,0.002 0.30006,-0.0878 0.29368,-0.086 8.11627,-2.37486 16.22425,-4.6609 27.00937,-6.57479 2.31525,-0.41086 4.65073,-0.78602 7.02523,-1.13148 5.55287,-0.80787 11.52136,-1.52254 18.46319,-2.07348 6.79315,-0.53913 12.84854,-0.78173 16.65937,-0.87774 -3.83352,-0.0966 -9.84802,-0.23875 -16.70694,-0.14114 -6.87717,0.0979 -13.13955,0.41739 -18.67439,0.95352 -2.40983,0.23343 -4.79216,0.51107 -7.14917,0.83429 -10.88045,1.49205 -19.4406,3.70477 -27.49312,6.02982 -0.002,4.6e-4 -0.29368,0.0849 -0.29528,0.0854 -8.21821,2.37909 -14.90043,4.50532 -23.52893,6.40316 -1.82526,0.40146 -3.64182,0.77068 -5.48016,1.11502 -4.32777,0.81063 -8.856306,1.54162 -14.166335,2.11967 -5.183875,0.56432 -9.781991,0.82903 -12.689269,0.93427 z"
       id="use157"
       sodipodi:nodetypes="cc"
       inkscape:tile-x0="73.384766"
       inkscape:tile-y0="178.15614"
       inkscape:transform-center-x="63.091797"
       inkscape:transform-center-y="9.185911"
       transform="rotate(-127.47,140.99993,218.6369)" />
    <path
       style="display:inline;fill:#000000;fill-rule:nonzero;stroke:none;stroke-width:1;stroke-linecap:square;stroke-linejoin:bevel;stroke-dasharray:none"
       d="m 73.384766,196.66406 c 2.921285,0.10575 7.498031,0.26937 12.758562,0.19141 5.267977,-0.0781 10.117589,-0.38409 14.457292,-0.91888 1.88431,-0.23221 3.75758,-0.50983 5.63089,-0.83293 8.63694,-1.48968 15.95125,-3.70684 23.88601,-6.03013 -0.006,0.002 0.30006,-0.0878 0.29368,-0.086 8.11627,-2.37486 16.22425,-4.6609 27.00937,-6.57479 2.31525,-0.41086 4.65073,-0.78602 7.02523,-1.13148 5.55287,-0.80787 11.52136,-1.52254 18.46319,-2.07348 6.79315,-0.53913 12.84854,-0.78173 16.65937,-0.87774 -3.83352,-0.0966 -9.84802,-0.23875 -16.70694,-0.14114 -6.87717,0.0979 -13.13955,0.41739 -18.67439,0.95352 -2.40983,0.23343 -4.79216,0.51107 -7.14917,0.83429 -10.88045,1.49205 -19.4406,3.70477 -27.49312,6.02982 -0.002,4.6e-4 -0.29368,0.0849 -0.29528,0.0854 -8.21821,2.37909 -14.90043,4.50532 -23.52893,6.40316 -1.82526,0.40146 -3.64182,0.77068 -5.48016,1.11502 -4.32777,0.81063 -8.856306,1.54162 -14.166335,2.11967 -5.183875,0.56432 -9.781991,0.82903 -12.689269,0.93427 z"
       id="path176"
       sodipodi:nodetypes="cc"
       inkscape:tile-x0="73.384766"
       inkscape:tile-y0="178.15614"
       inkscape:transform-center-x="-28.21077"
       inkscape:transform-center-y="-56.999143"
       transform="rotate(124.53,199.56836,178.33008)" />
    <path
       style="display:inline;fill:#000000;fill-rule:nonzero;stroke:none;stroke-width:1.43644;stroke-linecap:square;stroke-linejoin:bevel;stroke-dasharray:none"
       d="m 438.61523,196.66406 c -4.40694,0.67599 -11.31057,1.73777 -19.1557,3.30824 -7.85623,1.5727 -15.00941,3.32863 -21.32228,5.24332 -2.74105,0.83135 -5.45024,1.71939 -8.14412,2.66729 -12.42019,4.37032 -22.6154,9.32887 -33.70315,14.60022 0.009,-0.004 -0.41928,0.19931 -0.41038,0.19506 -11.34189,5.38987 -22.70141,10.66053 -38.1926,16.1885 -3.32551,1.1867 -6.69335,2.33206 -10.12961,3.44922 -8.03586,2.61256 -16.72513,5.21844 -26.92618,7.88046 -9.98254,2.605 -18.9614,4.61393 -24.6312,5.80363 5.76885,-0.94261 14.81656,-2.43379 25.04678,-4.47615 10.25741,-2.04778 19.51999,-4.21567 27.62072,-6.46561 3.52701,-0.97962 6.99791,-2.00972 10.41552,-3.09275 15.77641,-4.99946 27.83732,-10.29981 39.10067,-15.60634 0.003,-0.002 0.41074,-0.19367 0.41297,-0.19473 11.49301,-5.42387 20.77314,-10.08639 33.04275,-14.99146 2.59548,-1.03761 5.18886,-2.03036 7.82324,-2.99644 6.20177,-2.27433 12.73088,-4.4999 20.48104,-6.74226 7.56604,-2.18909 14.35686,-3.82047 18.67153,-4.7702 z"
       id="path197"
       sodipodi:nodetypes="cc"
       inkscape:tile-x0="73.384766"
       inkscape:tile-y0="178.15614"
       inkscape:transform-center-x="91.30761"
       inkscape:transform-center-y="29.66797" />
    <path
       style="display:inline;fill:#000000;fill-rule:nonzero;stroke:none;stroke-width:1.82716;stroke-linecap:square;stroke-linejoin:bevel;stroke-dasharray:none"
       d="m 368.86133,411.3418 c -2.72361,-1.76976 -6.99025,-4.54949 -11.83876,-8.66099 -4.85537,-4.11735 -9.27623,-8.71438 -13.17776,-13.72704 -1.69405,-2.1765 -3.3684,-4.50136 -5.0333,-6.98299 -7.67603,-11.44152 -13.97695,-24.42301 -20.82949,-38.22344 0.006,0.0101 -0.25912,-0.52182 -0.25363,-0.51067 -7.0096,-14.1107 -14.0301,-27.90933 -23.60409,-42.38157 -2.05526,-3.1068 -4.13668,-6.10534 -6.26038,-9.03007 -4.96639,-6.83971 -10.3366,-13.66191 -16.64113,-20.63108 -6.1695,-6.81991 -11.71868,-12.07931 -15.22278,-15.19395 3.56531,2.46776 9.15706,6.37168 15.47961,11.71858 6.33937,5.36111 12.06391,11.03666 17.07038,16.92701 2.1798,2.56466 4.32491,5.26146 6.43708,8.09684 9.75026,13.08858 17.20425,26.96493 24.16532,40.85748 0.002,0.005 0.25384,0.50702 0.25521,0.50977 7.10301,14.19975 12.83839,26.40624 20.42135,39.24773 1.60408,2.71646 3.20686,5.31549 4.83499,7.84472 3.83286,5.95419 7.86804,11.78073 12.65785,17.65127 4.67602,5.73103 8.87295,10.002 11.53953,12.4884 z"
       id="path197-3"
       sodipodi:nodetypes="cc"
       inkscape:tile-x0="73.384766"
       inkscape:tile-y0="178.15614"
       inkscape:transform-center-x="56.43066"
       inkscape:transform-center-y="-77.6709" />
    <path
       style="display:inline;fill:#000000;fill-rule:nonzero;stroke:none;stroke-width:1.82716;stroke-linecap:square;stroke-linejoin:bevel;stroke-dasharray:none"
       d="m 256.00001,256.00029 c -2.72361,1.76978 -6.99025,4.54945 -11.83876,8.66099 -4.85537,4.11735 -9.27624,8.71437 -13.17777,13.72698 -1.69404,2.1765 -3.3684,4.50139 -5.0333,6.98297 -7.67603,11.44154 -13.97695,24.42296 -20.82949,38.22339 0.006,-0.0125 -0.25912,0.52192 -0.25363,0.51067 -7.00959,14.11071 -14.0301,27.90926 -23.6041,42.38149 -2.05526,3.10677 -4.13668,6.10534 -6.26037,9.03009 -4.96639,6.83964 -10.3366,13.66185 -16.64114,20.63101 -6.1695,6.81989 -11.71868,12.07928 -15.22278,15.19392 3.56531,-2.46777 9.15706,-6.37167 15.47961,-11.71856 6.33937,-5.36109 12.06392,-11.03663 17.07039,-16.92695 2.1798,-2.56465 4.32491,-5.26145 6.43708,-8.09681 9.75027,-13.08856 17.20426,-26.96493 24.16533,-40.85743 0.002,-0.005 0.25384,-0.50692 0.25521,-0.51004 7.10301,-14.19971 12.83839,-26.40619 20.42135,-39.24767 1.60408,-2.71641 3.20686,-5.31545 4.83499,-7.84466 3.83286,-5.9542 7.86805,-11.7807 12.65786,-17.65126 4.67601,-5.73099 8.87295,-10.00198 11.53952,-12.48838 z"
       id="path197-3-1"
       sodipodi:nodetypes="cc"
       inkscape:tile-x0="73.384766"
       inkscape:tile-y0="178.15614"
       inkscape:transform-center-x="56.430673"
       inkscape:transform-center-y="77.67063" />
    <path
       style="display:inline;fill:#000000;fill-rule:nonzero;stroke:none;stroke-width:1.43644;stroke-linecap:square;stroke-linejoin:bevel;stroke-dasharray:none"
       d="m 73.384766,196.66415 c 4.406931,0.67601 11.310592,1.73776 19.155722,3.30824 7.856232,1.57271 15.009392,3.32864 21.322272,5.2433 2.74105,0.83136 5.45025,1.7194 8.1441,2.66729 12.42023,4.37033 22.61542,9.32885 33.70315,14.6002 -0.0116,-0.005 0.41911,0.19936 0.41039,0.19506 11.34187,5.38988 22.70141,10.66051 38.19263,16.18848 3.32549,1.18669 6.69335,2.33205 10.12957,3.44922 8.03586,2.61254 16.72515,5.21842 26.92622,7.88043 9.98256,2.605 18.96139,4.61393 24.63119,5.80363 -5.76885,-0.94261 -14.81657,-2.43379 -25.04676,-4.47614 -10.25746,-2.04778 -19.52003,-4.21567 -27.62075,-6.4656 -3.52702,-0.97962 -6.99795,-2.00971 -10.41551,-3.09273 -15.77641,-4.99945 -27.83734,-10.29981 -39.10073,-15.60633 -0.003,-0.002 -0.41098,-0.19363 -0.41272,-0.19482 -11.49307,-5.42387 -20.77319,-10.08638 -33.0428,-14.99145 -2.59549,-1.03758 -5.18884,-2.03034 -7.82322,-2.99642 -6.2018,-2.27433 -12.730932,-4.49988 -20.481078,-6.74226 -7.565991,-2.18907 -14.356881,-3.82046 -18.671502,-4.77019 z"
       id="path197-3-1-3"
       sodipodi:nodetypes="cc"
       inkscape:tile-x0="73.384766"
       inkscape:tile-y0="178.15614"
       inkscape:transform-center-x="-91.307628"
       inkscape:transform-center-y="29.667875" />
  </g>
</svg>
